<svg xmlns="http://www.w3.org/2000/svg" xmlns:xlink="http://www.w3.org/1999/xlink" viewBox="0 0 995.48 430.03"><defs><style>.cls-1,.cls-2{fill:#b20000;}.cls-2{opacity:0.09;}.cls-3{opacity:0.84;}.cls-4{opacity:0;}.cls-5{opacity:0;}.cls-6{opacity:0;}.cls-7{opacity:0.01;}.cls-8{opacity:0.01;}.cls-9{opacity:0.01;}.cls-10{opacity:0.01;}.cls-11{opacity:0.01;}.cls-12{opacity:0.02;}.cls-13{opacity:0.02;}.cls-14{opacity:0.02;}.cls-15{opacity:0.02;}.cls-16{opacity:0.02;}.cls-17{opacity:0.03;}.cls-18{opacity:0.03;}.cls-19{opacity:0.03;}.cls-20{opacity:0.03;}.cls-21{opacity:0.03;}.cls-22{opacity:0.03;}.cls-23{opacity:0.04;}.cls-24{opacity:0.04;}.cls-25{opacity:0.04;}.cls-26{opacity:0.04;}.cls-27{opacity:0.04;}.cls-28{opacity:0.05;}.cls-29{opacity:0.05;}.cls-30{opacity:0.05;}.cls-31{opacity:0.05;}.cls-32{opacity:0.05;}.cls-33{opacity:0.06;}.cls-34{opacity:0.06;}.cls-35{opacity:0.06;}.cls-36{opacity:0;}.cls-37{opacity:0.01;}.cls-38{opacity:0.01;}.cls-39{opacity:0.01;}.cls-40{opacity:0.02;}.cls-41{opacity:0.02;}.cls-42{opacity:0.02;}.cls-43{opacity:0.03;}.cls-44{opacity:0.03;}.cls-45{opacity:0.03;}.cls-46{opacity:0.04;}.cls-47{opacity:0.04;}.cls-48{opacity:0.04;}.cls-49{opacity:0.05;}.cls-50{opacity:0.05;}.cls-51{opacity:0.05;}.cls-52{opacity:0.05;}.cls-53{opacity:0.06;}.cls-54{opacity:0.06;}.cls-55{opacity:0.06;}.cls-56{opacity:0.07;}.cls-57{opacity:0.07;}.cls-58{opacity:0.07;}.cls-59{opacity:0.08;}.cls-60{opacity:0.08;}.cls-61{opacity:0.08;}.cls-62{opacity:0.09;}.cls-63{opacity:0.09;}.cls-64{opacity:0.09;}.cls-65{opacity:0.1;}.cls-66{opacity:0.1;}.cls-67{fill:#e6e7e8;}.cls-68{fill:#f7f8f9;}.cls-69{opacity:0.17;}.cls-70{opacity:0.01;}.cls-71{opacity:0.03;}.cls-72{opacity:0.04;}.cls-73{opacity:0.06;}.cls-74{opacity:0.07;}.cls-75{opacity:0.09;}.cls-76{opacity:0.1;}.cls-77{opacity:0.12;}.cls-78{opacity:0.13;}.cls-79{opacity:0.15;}.cls-80{opacity:0.16;}.cls-81{opacity:0.18;}.cls-82{opacity:0.19;}.cls-83{opacity:0.21;}.cls-84{opacity:0.22;}.cls-85{opacity:0.24;}.cls-86{opacity:0.25;}.cls-87{opacity:0.27;}.cls-88{opacity:0.28;}.cls-89{opacity:0.3;}.cls-90{opacity:0.31;}.cls-91{fill:#f9f9f9;}.cls-92{opacity:0.62;}.cls-93{fill:#fc0000;}.cls-94{fill:#fc0c0c;}.cls-95{fill:#fb1717;}.cls-96{fill:#fb2323;}.cls-97{fill:#fa2e2e;}.cls-98{fill:#fa3a3a;}.cls-99{fill:#fa4646;}.cls-100{fill:#f95151;}.cls-101{fill:#f95d5d;}.cls-102{fill:#f96969;}.cls-103{fill:#f87474;}.cls-104{fill:#f88080;}.cls-105{fill:#f78b8b;}.cls-106{fill:#f79797;}.cls-107{fill:#f7a3a3;}.cls-108{fill:#f6aeae;}.cls-109{fill:#f6baba;}.cls-110{fill:#f6c6c6;}.cls-111{fill:#f5d1d1;}.cls-112{fill:#f5dddd;}.cls-113{fill:#f4e8e8;}.cls-114{fill:#f4f4f4;}.cls-115{fill:#d1d3d4;}.cls-116{opacity:0.59;}.cls-117{fill:#d4d6d7;}.cls-118{fill:#d7d9d9;}.cls-119{fill:#dadbdc;}.cls-120{fill:#dddedf;}.cls-121{fill:#e0e1e2;}.cls-122{fill:#e2e4e4;}.cls-123{fill:#e5e7e7;}.cls-124{fill:#e8eaea;}.cls-125{fill:#ebeced;}.cls-126{fill:#eeefef;}.cls-127{fill:#f1f2f2;}.cls-128{fill:#fff;}.cls-129{opacity:0.22;}.cls-130{fill:#f2ebf2;}.cls-131{fill:#1da6f2;}.cls-132{fill:#e72a27;}.cls-133{fill:#f9f200;}.cls-134{fill:#996039;}.cls-135{fill:url(#linear-gradient);}.cls-136{fill:url(#linear-gradient-2);}.cls-137{fill:#844f28;}.cls-138{fill:#603416;}.cls-139{fill:#9b9b8f;}.cls-140{fill:#eaeae1;}.cls-141{fill:#d8d8ce;}.cls-142{fill:url(#linear-gradient-3);}.cls-143{fill:url(#linear-gradient-4);}.cls-144{fill:url(#linear-gradient-5);}.cls-145{fill:url(#linear-gradient-6);}.cls-146{fill:#e8e8e8;}.cls-147{fill:none;}.cls-148{fill:url(#linear-gradient-7);}.cls-149{fill:url(#linear-gradient-8);}.cls-150{fill:url(#linear-gradient-9);}.cls-151{fill:url(#linear-gradient-10);}.cls-152{fill:url(#linear-gradient-11);}.cls-153{fill:url(#linear-gradient-12);}</style><linearGradient id="linear-gradient" x1="809.72" y1="262.88" x2="818.84" y2="269.03" gradientUnits="userSpaceOnUse"><stop offset="0" stop-color="#c6a185"/><stop offset="0.16" stop-color="#b98f70"/><stop offset="0.44" stop-color="#a87552"/><stop offset="0.68" stop-color="#9d6640"/><stop offset="0.85" stop-color="#996039"/></linearGradient><linearGradient id="linear-gradient-2" x1="900.21" y1="321.55" x2="905.16" y2="337.71" xlink:href="#linear-gradient"/><linearGradient id="linear-gradient-3" x1="793.73" y1="335.27" x2="793.73" y2="328.97" gradientUnits="userSpaceOnUse"><stop offset="0.01" stop-color="#9b9b8f"/><stop offset="1" stop-color="#c1c1b7"/></linearGradient><linearGradient id="linear-gradient-4" x1="834.27" y1="334.81" x2="834.27" y2="329.21" xlink:href="#linear-gradient-3"/><linearGradient id="linear-gradient-5" x1="799.61" y1="293.98" x2="817.95" y2="293.98" gradientUnits="userSpaceOnUse"><stop offset="0.17" stop-color="#b4b2b2"/><stop offset="0.32" stop-color="#848484"/><stop offset="0.69" stop-color="#b4b2b2"/><stop offset="1" stop-color="#848484"/></linearGradient><linearGradient id="linear-gradient-6" x1="796.31" y1="317.18" x2="829.54" y2="273.09" gradientUnits="userSpaceOnUse"><stop offset="0.05" stop-color="#fff"/><stop offset="0.22" stop-color="#848484"/><stop offset="0.38" stop-color="#fff"/><stop offset="0.57" stop-color="#848484"/><stop offset="0.81" stop-color="#fff"/><stop offset="0.82" stop-color="#f1f1f1"/><stop offset="0.86" stop-color="#cacaca"/><stop offset="0.9" stop-color="#acacac"/><stop offset="0.93" stop-color="#969696"/><stop offset="0.97" stop-color="#888"/><stop offset="1" stop-color="#848484"/></linearGradient><linearGradient id="linear-gradient-7" x1="767.89" y1="250.65" x2="751.76" y2="217.57" gradientUnits="userSpaceOnUse"><stop offset="0.15" stop-color="#996039"/><stop offset="0.32" stop-color="#9d6640"/><stop offset="0.56" stop-color="#a87552"/><stop offset="0.84" stop-color="#b98f70"/><stop offset="1" stop-color="#c6a185"/></linearGradient><linearGradient id="linear-gradient-8" x1="751.99" y1="263.4" x2="737.43" y2="233.56" xlink:href="#linear-gradient-7"/><linearGradient id="linear-gradient-9" x1="-303.88" y1="480.92" x2="-313.61" y2="460.97" gradientTransform="matrix(-0.93, 0.37, 0.37, 0.93, 273.97, -54.11)" xlink:href="#linear-gradient-7"/><linearGradient id="linear-gradient-10" x1="814.86" y1="161.04" x2="798.73" y2="127.96" gradientTransform="translate(6.17 -32.6) rotate(8.34)" xlink:href="#linear-gradient-7"/><linearGradient id="linear-gradient-11" x1="927.27" y1="332.83" x2="933.72" y2="353.9" xlink:href="#linear-gradient"/><linearGradient id="linear-gradient-12" x1="887.93" y1="363.33" x2="887.93" y2="350.61" xlink:href="#linear-gradient-7"/></defs><title>Asset 1</title><g id="Layer_2" data-name="Layer 2"><g id="Layer_1-2" data-name="Layer 1"><path class="cls-1" d="M706.63,387.57V249.69A3.65,3.65,0,0,0,703,246H468a3.65,3.65,0,0,0-3.65,3.65V387.57a3.66,3.66,0,0,0,3.65,3.65H703A3.66,3.66,0,0,0,706.63,387.57Zm-239.81,0V249.69a1.22,1.22,0,0,1,1.21-1.22H703a1.22,1.22,0,0,1,1.22,1.22V387.57a1.22,1.22,0,0,1-1.22,1.21H468A1.21,1.21,0,0,1,466.82,387.57Z"/><path class="cls-1" d="M743.15,405.91H723.76V231.72a8.53,8.53,0,0,0-8.52-8.52H455.78a8.53,8.53,0,0,0-8.53,8.52V405.91H427.86c-4.49,0-8,2.47-8,5.61V421c0,3.14,3.53,5.6,8,5.6H743.15c4.5,0,8-2.46,8-5.6v-9.5C751.17,408.38,747.65,405.91,743.15,405.91ZM449.69,231.72a6.09,6.09,0,0,1,6.09-6.09H715.24a6.1,6.1,0,0,1,6.09,6.09V405.91H449.69ZM633,410.18a1.83,1.83,0,0,1-1.82,1.82H539.83a1.83,1.83,0,1,1,0-3.65h91.36A1.83,1.83,0,0,1,633,410.18ZM748.73,421c0,1.5-2.29,3.17-5.58,3.17H427.86c-3.29,0-5.58-1.67-5.58-3.17v-9.5c0-1.5,2.29-3.17,5.58-3.17H536a4.25,4.25,0,0,0,3.85,6.09h91.36a4.26,4.26,0,0,0,4.26-4.26,4.14,4.14,0,0,0-.42-1.83H743.15c3.29,0,5.58,1.67,5.58,3.17Z"/><path class="cls-1" d="M585.51,242.76a6.93,6.93,0,1,0-6.93-6.93A6.93,6.93,0,0,0,585.51,242.76Zm0-11.42a4.5,4.5,0,1,1-4.5,4.49A4.5,4.5,0,0,1,585.51,231.34Z"/><rect class="cls-2" x="466.82" y="248.47" width="237.38" height="140.31"/><path class="cls-1" d="M549.28,0H150.13c-13.45,0-24.39,13.75-24.39,30.66V317.48c0,16.91,10.94,30.67,24.39,30.67H281v39.91H203.35a11.1,11.1,0,0,0-11.09,11.09v15.52a11.1,11.1,0,0,0,11.09,11.09H496.06a11.1,11.1,0,0,0,11.08-11.09V399.15a11.09,11.09,0,0,0-11.08-11.09H418.44V348.15H549.28c13.45,0,24.39-13.76,24.39-30.67V30.66C573.67,13.75,562.73,0,549.28,0ZM496.06,392.5a6.66,6.66,0,0,1,6.65,6.65v15.52a6.66,6.66,0,0,1-6.65,6.65H203.35a6.65,6.65,0,0,1-6.65-6.65V399.15a6.65,6.65,0,0,1,6.65-6.65H496.06ZM414,388.06H285.4V348.15H414Zm155.22-70.58c0,14.46-9,26.23-20,26.23H150.13c-11,0-20-11.77-20-26.23V30.66c0-14.46,9-26.23,20-26.23H549.28c11,0,20,11.77,20,26.23Z"/><path class="cls-1" d="M522.69,33.26h-346c-10,0-18.09,8.61-18.09,19.19v210c0,10.58,8.11,19.19,18.09,19.19h346c10,0,18.1-8.61,18.1-19.19v-210C540.79,41.87,532.67,33.26,522.69,33.26Zm13.66,229.17c0,8.14-6.12,14.76-13.66,14.76h-346c-7.53,0-13.66-6.62-13.66-14.76v-210c0-8.14,6.13-14.75,13.66-14.75h346c7.54,0,13.66,6.61,13.66,14.75Z"/><path class="cls-1" d="M349.7,288.27a24.4,24.4,0,1,0,24.39,24.4A24.42,24.42,0,0,0,349.7,288.27Zm0,44.35a20,20,0,1,1,20-19.95A20,20,0,0,1,349.7,332.62Z"/><g id="phone"><g class="cls-3"><ellipse class="cls-4" cx="65.69" cy="421.38" rx="65.69" ry="3.49"/><ellipse class="cls-5" cx="65.69" cy="421.38" rx="65.37" ry="3.43"/><ellipse class="cls-6" cx="65.69" cy="421.38" rx="65.05" ry="3.37"/><ellipse class="cls-7" cx="65.69" cy="421.38" rx="64.73" ry="3.3"/><ellipse class="cls-8" cx="65.69" cy="421.38" rx="64.41" ry="3.24"/><path class="cls-9" d="M129.78,421.38c0,3.17-28.7,3.17-64.09,3.17s-64.08,0-64.08-3.17,28.69-3.18,64.08-3.18S129.78,418.2,129.78,421.38Z"/><path class="cls-10" d="M129.45,421.38c0,3.11-28.54,3.11-63.76,3.11s-63.76,0-63.76-3.11,28.54-3.12,63.76-3.12S129.45,418.26,129.45,421.38Z"/><path class="cls-11" d="M129.13,421.38c0,3.05-28.4,3.05-63.44,3.05s-63.44,0-63.44-3.05,28.4-3.05,63.44-3.05S129.13,418.33,129.13,421.38Z"/><path class="cls-12" d="M128.81,421.38c0,3-28.26,3-63.12,3s-63.12,0-63.12-3,28.26-3,63.12-3S128.81,418.39,128.81,421.38Z"/><path class="cls-13" d="M128.49,421.38c0,2.92-28.12,2.92-62.8,2.92s-62.8,0-62.8-2.92,28.12-2.93,62.8-2.93S128.49,418.45,128.49,421.38Z"/><path class="cls-14" d="M128.17,421.38c0,2.85-28,2.85-62.48,2.85s-62.48,0-62.48-2.85,28-2.86,62.48-2.86S128.17,418.52,128.17,421.38Z"/><path class="cls-15" d="M127.85,421.38c0,2.79-27.83,2.79-62.16,2.79s-62.16,0-62.16-2.79,27.83-2.8,62.16-2.8S127.85,418.58,127.85,421.38Z"/><path class="cls-16" d="M127.53,421.38c0,2.73-27.69,2.73-61.84,2.73s-61.84,0-61.84-2.73,27.69-2.73,61.84-2.73S127.53,418.65,127.53,421.38Z"/><path class="cls-17" d="M127.21,421.38c0,2.66-27.54,2.66-61.52,2.66s-61.52,0-61.52-2.66,27.55-2.67,61.52-2.67S127.21,418.71,127.21,421.38Z"/><path class="cls-18" d="M126.89,421.38c0,2.6-27.4,2.6-61.2,2.6s-61.2,0-61.2-2.6,27.4-2.61,61.2-2.61S126.89,418.77,126.89,421.38Z"/><path class="cls-19" d="M126.57,421.38c0,2.54-27.26,2.54-60.88,2.54s-60.87,0-60.87-2.54,27.25-2.54,60.87-2.54S126.57,418.84,126.57,421.38Z"/><path class="cls-20" d="M126.24,421.38c0,2.47-27.11,2.47-60.55,2.47s-60.55,0-60.55-2.47,27.11-2.48,60.55-2.48S126.24,418.9,126.24,421.38Z"/><path class="cls-21" d="M125.92,421.38c0,2.41-27,2.41-60.23,2.41s-60.23,0-60.23-2.41,27-2.42,60.23-2.42S125.92,419,125.92,421.38Z"/><path class="cls-22" d="M125.6,421.38c0,2.35-26.82,2.35-59.91,2.35s-59.91,0-59.91-2.35S32.6,419,65.69,419,125.6,419,125.6,421.38Z"/><path class="cls-23" d="M125.28,421.38c0,2.28-26.68,2.28-59.59,2.28s-59.59,0-59.59-2.28,26.68-2.29,59.59-2.29S125.28,419.09,125.28,421.38Z"/><path class="cls-24" d="M125,421.38c0,2.22-26.54,2.22-59.27,2.22s-59.27,0-59.27-2.22,26.54-2.23,59.27-2.23S125,419.15,125,421.38Z"/><path class="cls-25" d="M124.64,421.38c0,2.16-26.39,2.16-58.95,2.16s-58.95,0-58.95-2.16,26.39-2.16,59-2.16S124.64,419.22,124.64,421.38Z"/><path class="cls-26" d="M124.32,421.38c0,2.09-26.25,2.09-58.63,2.09s-58.63,0-58.63-2.09,26.25-2.1,58.63-2.1S124.32,419.28,124.32,421.38Z"/><path class="cls-27" d="M124,421.38c0,2-26.11,2-58.31,2s-58.31,0-58.31-2,26.11-2,58.31-2S124,419.34,124,421.38Z"/><path class="cls-28" d="M123.68,421.38c0,2-26,2-58,2s-58,0-58-2,26-2,58-2S123.68,419.41,123.68,421.38Z"/><path class="cls-29" d="M123.35,421.38c0,1.9-25.81,1.9-57.66,1.9S8,423.28,8,421.38s25.81-1.91,57.66-1.91S123.35,419.47,123.35,421.38Z"/><path class="cls-30" d="M123,421.38c0,1.84-25.67,1.84-57.34,1.84s-57.34,0-57.34-1.84,25.67-1.85,57.34-1.85S123,419.53,123,421.38Z"/><path class="cls-31" d="M122.71,421.38c0,1.78-25.53,1.78-57,1.78s-57,0-57-1.78,25.53-1.78,57-1.78S122.71,419.6,122.71,421.38Z"/><path class="cls-32" d="M122.39,421.38c0,1.71-25.38,1.71-56.7,1.71S9,423.09,9,421.38s25.39-1.72,56.7-1.72S122.39,419.66,122.39,421.38Z"/><path class="cls-33" d="M122.07,421.38c0,1.65-25.24,1.65-56.38,1.65s-56.38,0-56.38-1.65,25.24-1.66,56.38-1.66S122.07,419.72,122.07,421.38Z"/><path class="cls-34" d="M121.75,421.38c0,1.58-25.1,1.58-56.06,1.58s-56.06,0-56.06-1.58,25.1-1.59,56.06-1.59S121.75,419.79,121.75,421.38Z"/><path class="cls-35" d="M121.43,421.38c0,1.52-25,1.52-55.74,1.52S10,422.9,10,421.38s25-1.53,55.74-1.53S121.43,419.85,121.43,421.38Z"/></g><ellipse class="cls-4" cx="65.69" cy="421.61" rx="53.34" ry="1.92"/><ellipse class="cls-36" cx="65.69" cy="421.61" rx="53.08" ry="1.88"/><ellipse class="cls-37" cx="65.69" cy="421.61" rx="52.82" ry="1.84"/><ellipse class="cls-38" cx="65.69" cy="421.61" rx="52.56" ry="1.8"/><ellipse class="cls-39" cx="65.69" cy="421.61" rx="52.3" ry="1.75"/><ellipse class="cls-40" cx="65.69" cy="421.61" rx="52.04" ry="1.71"/><ellipse class="cls-41" cx="65.69" cy="421.61" rx="51.78" ry="1.67"/><ellipse class="cls-42" cx="65.69" cy="421.61" rx="51.52" ry="1.62"/><ellipse class="cls-43" cx="65.69" cy="421.61" rx="51.26" ry="1.58"/><ellipse class="cls-44" cx="65.69" cy="421.61" rx="51" ry="1.54"/><ellipse class="cls-45" cx="65.69" cy="421.61" rx="50.74" ry="1.49"/><path class="cls-46" d="M116.17,421.61c0,1.45-22.6,1.45-50.48,1.45s-50.48,0-50.48-1.45,22.6-1.46,50.48-1.46S116.17,420.15,116.17,421.61Z"/><path class="cls-47" d="M115.91,421.61c0,1.4-22.49,1.4-50.22,1.4s-50.22,0-50.22-1.4S38,420.2,65.69,420.2,115.91,420.2,115.91,421.61Z"/><path class="cls-48" d="M115.65,421.61c0,1.36-22.37,1.36-50,1.36s-49.95,0-49.95-1.36,22.36-1.37,49.95-1.37S115.65,420.24,115.65,421.61Z"/><path class="cls-49" d="M115.38,421.61c0,1.32-22.24,1.32-49.69,1.32S16,422.93,16,421.61s22.25-1.33,49.69-1.33S115.38,420.28,115.38,421.61Z"/><path class="cls-50" d="M115.12,421.61c0,1.27-22.13,1.27-49.43,1.27s-49.43,0-49.43-1.27,22.13-1.28,49.43-1.28S115.12,420.33,115.12,421.61Z"/><path class="cls-51" d="M114.86,421.61c0,1.23-22,1.23-49.17,1.23s-49.17,0-49.17-1.23,22-1.24,49.17-1.24S114.86,420.37,114.86,421.61Z"/><path class="cls-52" d="M114.6,421.61c0,1.19-21.9,1.19-48.91,1.19s-48.91,0-48.91-1.19,21.9-1.2,48.91-1.2S114.6,420.41,114.6,421.61Z"/><path class="cls-53" d="M114.34,421.61c0,1.15-21.78,1.15-48.65,1.15S17,422.76,17,421.61s21.78-1.15,48.65-1.15S114.34,420.46,114.34,421.61Z"/><path class="cls-54" d="M114.08,421.61c0,1.1-21.66,1.1-48.39,1.1s-48.39,0-48.39-1.1S39,420.5,65.69,420.5,114.08,420.5,114.08,421.61Z"/><path class="cls-55" d="M113.82,421.61c0,1.06-21.55,1.06-48.13,1.06s-48.13,0-48.13-1.06,21.55-1.07,48.13-1.07S113.82,420.54,113.82,421.61Z"/><path class="cls-56" d="M113.56,421.61c0,1-21.43,1-47.87,1s-47.87,0-47.87-1,21.43-1,47.87-1S113.56,420.58,113.56,421.61Z"/><path class="cls-57" d="M113.3,421.61c0,1-21.32,1-47.61,1s-47.61,0-47.61-1,21.32-1,47.61-1S113.3,420.63,113.3,421.61Z"/><path class="cls-58" d="M113,421.61c0,.93-21.2.93-47.35.93s-47.35,0-47.35-.93,21.2-.94,47.35-.94S113,420.67,113,421.61Z"/><path class="cls-59" d="M112.78,421.61c0,.89-21.08.89-47.09.89s-47.09,0-47.09-.89,21.09-.9,47.09-.9S112.78,420.71,112.78,421.61Z"/><path class="cls-60" d="M112.52,421.61c0,.84-21,.84-46.83.84s-46.83,0-46.83-.84,21-.85,46.83-.85S112.52,420.76,112.52,421.61Z"/><path class="cls-61" d="M112.26,421.61c0,.8-20.85.8-46.57.8s-46.56,0-46.56-.8,20.84-.81,46.56-.81S112.26,420.8,112.26,421.61Z"/><path class="cls-62" d="M112,421.61c0,.76-20.74.76-46.31.76s-46.3,0-46.3-.76,20.73-.77,46.3-.77S112,420.84,112,421.61Z"/><path class="cls-63" d="M111.73,421.61c0,.72-20.61.72-46,.72s-46,0-46-.72,20.61-.72,46-.72S111.73,420.89,111.73,421.61Z"/><path class="cls-64" d="M111.47,421.61c0,.67-20.49.67-45.78.67s-45.78,0-45.78-.67,20.5-.68,45.78-.68S111.47,420.93,111.47,421.61Z"/><path class="cls-65" d="M111.21,421.61c0,.63-20.38.63-45.52.63s-45.52,0-45.52-.63S40.55,421,65.69,421,111.21,421,111.21,421.61Z"/><path class="cls-66" d="M111,421.61c0,.59-20.26.59-45.26.59s-45.26,0-45.26-.59,20.26-.6,45.26-.6S111,421,111,421.61Z"/><path class="cls-67" d="M6.91,216.9a.17.17,0,0,1-.18-.17v-9.26a.18.18,0,0,1,.18-.18h.53v9.61Z"/><path class="cls-67" d="M6.91,239.4a.18.18,0,0,1-.18-.18v-15.8a.18.18,0,0,1,.18-.17h.53V239.4Z"/><path class="cls-67" d="M6.91,259.93a.18.18,0,0,1-.18-.18V244a.18.18,0,0,1,.18-.18h.53v16.16Z"/><path class="cls-67" d="M126.36,254.26a.18.18,0,0,0,.18-.18V228.37a.18.18,0,0,0-.18-.18h-.53v26.07Z"/><rect id="bottom_body" data-name="bottom body" class="cls-68" x="7.38" y="176.21" width="118.53" height="245.58" rx="51.17"/><g id="signal_side" data-name="signal side"><rect class="cls-67" x="124.45" y="194.57" width="1.46" height="1.6"/><rect class="cls-67" x="124.45" y="397.76" width="1.46" height="1.94"/><rect class="cls-67" x="7.38" y="194.57" width="1.46" height="1.6"/><rect class="cls-67" x="7.38" y="397.76" width="1.46" height="1.94"/></g><g id="Blend_mid" data-name="Blend mid" class="cls-69"><rect class="cls-4" x="8.31" y="177.07" width="116.67" height="243.85" rx="48.16"/><rect class="cls-70" x="8.33" y="177.1" width="116.62" height="243.8" rx="48.14"/><rect class="cls-71" x="8.36" y="177.12" width="116.57" height="243.75" rx="48.13"/><rect class="cls-72" x="8.38" y="177.14" width="116.52" height="243.7" rx="48.11"/><rect class="cls-73" x="8.41" y="177.17" width="116.47" height="243.66" rx="48.1"/><rect class="cls-74" x="8.43" y="177.19" width="116.42" height="243.61" rx="48.08"/><rect class="cls-75" x="8.46" y="177.21" width="116.37" height="243.56" rx="48.07"/><rect class="cls-76" x="8.48" y="177.24" width="116.32" height="243.52" rx="48.05"/><rect class="cls-77" x="8.51" y="177.26" width="116.27" height="243.47" rx="48.04"/><rect class="cls-78" x="8.53" y="177.29" width="116.22" height="243.42" rx="48.02"/><rect class="cls-79" x="8.56" y="177.31" width="116.17" height="243.37" rx="48.01"/><rect class="cls-80" x="8.59" y="177.33" width="116.12" height="243.33" rx="47.99"/><rect class="cls-81" x="8.61" y="177.36" width="116.07" height="243.28" rx="47.98"/><rect class="cls-82" x="8.64" y="177.38" width="116.02" height="243.23" rx="47.96"/><rect class="cls-83" x="8.66" y="177.4" width="115.97" height="243.18" rx="47.95"/><rect class="cls-84" x="8.69" y="177.43" width="115.92" height="243.14" rx="47.93"/><rect class="cls-85" x="8.71" y="177.45" width="115.86" height="243.09" rx="47.92"/><rect class="cls-86" x="8.74" y="177.48" width="115.81" height="243.04" rx="47.9"/><rect class="cls-87" x="8.76" y="177.5" width="115.76" height="242.99" rx="47.89"/><rect class="cls-88" x="8.79" y="177.52" width="115.71" height="242.95" rx="47.87"/><rect class="cls-89" x="8.81" y="177.55" width="115.66" height="242.9" rx="47.86"/><rect class="cls-90" x="8.84" y="177.57" width="115.61" height="242.85" rx="47.84"/></g><rect id="mid_body" data-name="mid body" class="cls-91" x="8.84" y="177.57" width="115.61" height="242.85" rx="47.84"/><g id="Blend_top" data-name="Blend top" class="cls-92"><rect class="cls-93" x="8.84" y="177.57" width="115.61" height="242.85" rx="20.14"/><rect class="cls-94" x="8.87" y="177.62" width="115.54" height="242.75" rx="20.32"/><path class="cls-95" d="M29.41,177.67h74.46a20.51,20.51,0,0,1,20.51,20.51V399.82a20.51,20.51,0,0,1-20.51,20.51H29.41a20.5,20.5,0,0,1-20.5-20.5V198.18a20.5,20.5,0,0,1,20.5-20.5Z"/><rect class="cls-96" x="8.94" y="177.72" width="115.4" height="242.55" rx="20.69"/><rect class="cls-97" x="8.98" y="177.77" width="115.33" height="242.44" rx="20.87"/><path class="cls-98" d="M30.07,177.82h73.15a21.06,21.06,0,0,1,21.06,21.06V399.11a21.05,21.05,0,0,1-21.05,21.05H30.07A21.05,21.05,0,0,1,9,399.11V198.88a21.05,21.05,0,0,1,21.05-21.05Z"/><rect class="cls-99" x="9.05" y="177.88" width="115.19" height="242.24" rx="21.24"/><rect class="cls-100" x="9.08" y="177.93" width="115.12" height="242.14" rx="21.42"/><path class="cls-101" d="M30.72,178h71.84a21.61,21.61,0,0,1,21.61,21.61V398.41a21.6,21.6,0,0,1-21.6,21.6H30.72a21.6,21.6,0,0,1-21.6-21.6V199.58A21.6,21.6,0,0,1,30.72,178Z"/><rect class="cls-102" x="9.15" y="178.03" width="114.98" height="241.94" rx="21.79"/><rect class="cls-103" x="9.19" y="178.08" width="114.91" height="241.83" rx="21.97"/><rect class="cls-104" x="9.23" y="178.13" width="114.84" height="241.73" rx="22.15"/><rect class="cls-105" x="9.26" y="178.18" width="114.76" height="241.63" rx="22.34"/><rect class="cls-106" x="9.3" y="178.23" width="114.69" height="241.53" rx="22.52"/><rect class="cls-107" x="9.33" y="178.28" width="114.62" height="241.43" rx="22.7"/><rect class="cls-108" x="9.37" y="178.33" width="114.55" height="241.33" rx="22.89"/><rect class="cls-109" x="9.4" y="178.38" width="114.48" height="241.22" rx="23.07"/><rect class="cls-110" x="9.44" y="178.44" width="114.41" height="241.12" rx="23.25"/><rect class="cls-111" x="9.47" y="178.49" width="114.34" height="241.02" rx="23.44"/><rect class="cls-112" x="9.51" y="178.54" width="114.27" height="240.92" rx="23.62"/><rect class="cls-113" x="9.54" y="178.59" width="114.2" height="240.82" rx="23.8"/><rect class="cls-114" x="9.58" y="178.64" width="114.13" height="240.72" rx="23.99"/></g><g id="speaker_phone" data-name="speaker phone"><path class="cls-115" d="M72.42,186.94H60a.67.67,0,0,1-.73-.73h0a.67.67,0,0,1,.73-.73H72.42a.67.67,0,0,1,.73.73h0A.67.67,0,0,1,72.42,186.94Z"/><g class="cls-116"><path class="cls-115" d="M72.42,186.94H60a.67.67,0,0,1-.73-.73h0a.67.67,0,0,1,.73-.73H72.42a.67.67,0,0,1,.73.73h0A.67.67,0,0,1,72.42,186.94Z"/><path class="cls-117" d="M72.42,186.93H60a.65.65,0,0,1-.71-.71h0a.65.65,0,0,1,.71-.71H72.42a.65.65,0,0,1,.71.71h0A.65.65,0,0,1,72.42,186.93Z"/><path class="cls-118" d="M72.41,186.93H60a.64.64,0,0,1-.7-.7h0a.63.63,0,0,1,.7-.7H72.41a.64.64,0,0,1,.7.7h0A.64.64,0,0,1,72.41,186.93Z"/><path class="cls-119" d="M72.41,186.92H60a.62.62,0,0,1-.68-.68h0a.62.62,0,0,1,.68-.68H72.41a.62.62,0,0,1,.68.68h0A.62.62,0,0,1,72.41,186.92Z"/><path class="cls-120" d="M72.41,186.92H60a.6.6,0,0,1-.66-.67h0a.6.6,0,0,1,.66-.67H72.41a.6.6,0,0,1,.66.67h0A.6.6,0,0,1,72.41,186.92Z"/><path class="cls-121" d="M72.4,186.91H60a.59.59,0,0,1-.66-.65h0a.59.59,0,0,1,.66-.65H72.4a.58.58,0,0,1,.65.65h0A.58.58,0,0,1,72.4,186.91Z"/><path class="cls-122" d="M72.4,186.9H60a.57.57,0,0,1-.64-.63h0a.57.57,0,0,1,.64-.63H72.4a.56.56,0,0,1,.63.63h0A.56.56,0,0,1,72.4,186.9Z"/><path class="cls-123" d="M72.39,186.9H60a.56.56,0,0,1-.62-.62h0a.56.56,0,0,1,.62-.62H72.39a.57.57,0,0,1,.63.62h0A.57.57,0,0,1,72.39,186.9Z"/><path class="cls-124" d="M72.39,186.89H60a.54.54,0,0,1-.61-.6h0a.54.54,0,0,1,.61-.6H72.39a.54.54,0,0,1,.61.6h0A.54.54,0,0,1,72.39,186.89Z"/><path class="cls-125" d="M72.39,186.89H60a.53.53,0,0,1-.59-.59h0a.53.53,0,0,1,.59-.59H72.39a.53.53,0,0,1,.59.59h0A.53.53,0,0,1,72.39,186.89Z"/><path class="cls-126" d="M72.38,186.88H60a.51.51,0,0,1-.57-.57h0a.51.51,0,0,1,.57-.57H72.38a.51.51,0,0,1,.58.57h0A.51.51,0,0,1,72.38,186.88Z"/><path class="cls-127" d="M72.38,186.88H60.05a.5.5,0,0,1-.56-.56h0a.49.49,0,0,1,.56-.55H72.38a.49.49,0,0,1,.56.55h0A.5.5,0,0,1,72.38,186.88Z"/></g></g><g id="screen"><path class="cls-128" d="M109.93,183.36H95a1.26,1.26,0,0,0-1.36,1.24c.08,2.26-1.08,6.79-5.83,6.79H45.46c-4.76,0-5.91-4.53-5.83-6.79a1.28,1.28,0,0,0-1.37-1.24H23.33c-6.73,0-9.23,5.66-9.23,11.08v209.8a11.61,11.61,0,0,0,11.78,11.31h81.5a11.6,11.6,0,0,0,11.77-11.31V194.44C119.15,189,116.65,183.36,109.93,183.36Z"/><path d="M107.38,415.59H25.88A11.78,11.78,0,0,1,17.29,412a11.35,11.35,0,0,1-3.23-7.76V194.44a13.3,13.3,0,0,1,2.1-7.6,8.24,8.24,0,0,1,7.17-3.53H38.26a1.49,1.49,0,0,1,1.08.44,1.13,1.13,0,0,1,.33.85,7.45,7.45,0,0,0,1.84,5.18,5.25,5.25,0,0,0,4,1.56H87.8a5.28,5.28,0,0,0,4-1.56,7.44,7.44,0,0,0,1.83-5.18,1.17,1.17,0,0,1,.33-.85,1.49,1.49,0,0,1,1.08-.44h14.94a8.24,8.24,0,0,1,7.17,3.53,13.38,13.38,0,0,1,2.09,7.6v209.8A11.31,11.31,0,0,1,116,412,11.77,11.77,0,0,1,107.38,415.59Zm-84-232.19c-6.77,0-9.18,5.7-9.18,11v209.8a11.25,11.25,0,0,0,3.21,7.7,11.68,11.68,0,0,0,8.52,3.57h81.5a11.7,11.7,0,0,0,8.52-3.57,11.25,11.25,0,0,0,3.21-7.7V194.44c0-5.34-2.41-11-9.18-11H95a1.39,1.39,0,0,0-1,.41,1.07,1.07,0,0,0-.31.79,7.54,7.54,0,0,1-1.86,5.24,5.33,5.33,0,0,1-4,1.59H45.46a5.3,5.3,0,0,1-4-1.59,7.55,7.55,0,0,1-1.87-5.24,1.06,1.06,0,0,0-.3-.79,1.43,1.43,0,0,0-1-.41Z"/></g><g id="camera"><path class="cls-127" d="M79.79,186.21a1.6,1.6,0,1,1-1.6-1.6A1.6,1.6,0,0,1,79.79,186.21Z"/><path class="cls-129" d="M79,186.21a.82.82,0,1,1-.82-.82A.82.82,0,0,1,79,186.21Z"/></g></g><circle class="cls-130" cx="65.69" cy="343.71" r="46.66"/><polygon class="cls-131" points="50.07 356.21 28.6 343.71 50.07 331.21 51.58 333.81 34.58 343.71 51.58 353.61 50.07 356.21"/><polygon class="cls-132" points="82.36 356.21 80.84 353.61 97.84 343.71 80.85 333.81 82.36 331.21 103.83 343.71 82.36 356.21"/><rect class="cls-133" x="34.77" y="342.21" width="62.89" height="3.01" transform="matrix(0.31, -0.95, 0.95, 0.31, -281.19, 300.93)"/><path class="cls-134" d="M798.9,298.68c-4.25,1.8-7,.14-8.57-1.58a16.64,16.64,0,0,1-1.84-3.76,12.23,12.23,0,0,0,2.75,2.5s-.7-5.24-.29-6.75a3.35,3.35,0,0,1,1.46-2,2.47,2.47,0,0,1,2.28.09,9,9,0,0,1,4.65,5.89s1.47-3.31-.42-5.89a8.59,8.59,0,0,0-2.91-3,5.16,5.16,0,0,0-4.66-.22l-.07,0a6.36,6.36,0,0,0-3.11,4,9,9,0,0,0-.06,4.35c-.24-.62-.47-1.24-.67-1.78a36.19,36.19,0,0,0-1.87-4.49c-1-1.75-2.16-5.93-3.08-9.29l-.07-.25c-1-3.62-6.09-21.16-6.3-21.91l-.1-.32-.21-.26a13.05,13.05,0,0,1-2.61-6.81l0-.2c-.68-4.07-1.09-7.71-1.33-10.9-.79-10.5-1.3-16.51-1.3-16.51s-2.33,3.19-2.32,9.39a115.6,115.6,0,0,0,1.66,18.47A16.4,16.4,0,0,0,773,255.9c.71,2.42,5.29,18.21,6.2,21.54l.07.26c1,3.72,2.17,7.95,3.41,10.08a18,18,0,0,1,.95,2.18,30.61,30.61,0,0,1-14.45-10l-.32-.45-.52-.18a5,5,0,0,1-1.43-1.24c4.74-4,8.45-6.63,8.53-6.69s-6.44,1-10.55,4.29l-.83-1.08c-4.84-6.41-8.7-17.16-11.14-25.29-1.86-6.19-2.9-10.87-2.93-11a44.24,44.24,0,0,0,1.81,18.37c2.44,7,5.69,14.69,9.61,19.89l.93,1.2a109.21,109.21,0,0,0-8.53,8c-8.1-6.7-14.17-27-14.23-27.23,0,0-1.33,7.14,1.52,13.6,2.59,5.84,6.11,12.27,10.24,15.87,0,.11.08.23.13.34a53.5,53.5,0,0,0-4.15,5.42c-6.2-3.29-14.15-10.57-17.26-26.57-.05-.21-.12-.52-.22-.9-.57-2.13-1.74-6.57.72-9.61a5.43,5.43,0,0,0,.78-1.48c.08-.18.15-.38.25-.58,1.37-2.92,2.79-10.49,2.94-11.34l-.37-1.4c-.16-.29-.87-1.87-.12-5.89,1.11-6,10.49-11.06,10.58-11.11l.8-.44.08-1s.21-4.22,2.5-6.51c2.43-2.44,3.17-3.17,9.31-3.33a57.17,57.17,0,0,0,13-2.05s1.29-.38,1.62-1c1.08-2.13,3.73-2.63,5-2.73l.93-.11a16.29,16.29,0,0,1,10,1.61c5.76,2.72,14.89,9.39,15,9.48,11.55,7.91,20.73,21.35,22.28,25.12,1.38,3.38,3,15.81,3,18.43,0,2-1.35,6.32-4,12.79-1.93,4.71-7.12,10.08-8.2,11.18-2.53,1.1-4.74,1.23-6.58.39-2.57-1.18-4.63-4.26-6-8.9-1-3.43,1.13-10.91,3.66-15.3,2-3.5,7.46-6.62,7.46-6.62a14.76,14.76,0,0,0-1.62.12,27.74,27.74,0,0,1,2.28-6.5,8.22,8.22,0,0,0-3,1.95c-1.36-2.2-.69-8-.69-8s-1.31,3.27-1.93,4.52c-.48,1-.78,3.64-1,6.06-.64-1.71-1.63-3.49-3.05-4.25a3.3,3.3,0,0,0-2.89-.11,8.27,8.27,0,0,0-1.49.84c0-.32.06-.64.09-1,.16-1.39.25-2.67.3-3.87a7,7,0,0,0,3.29-2.66c1.26-1.8,1.84-4.21,2.16-7.18.51-4.86-4.05-8.69-4.05-8.69,1.84,9.48,0,13.19-1.39,14.61-.43-9.27-4.06-11.34-4.56-11.58a6,6,0,0,0-4,0s7.74,1.55,4.93,19a52.7,52.7,0,0,0-.47,6.13,2.64,2.64,0,0,1-.1.61c-1.51,4.37-1.87,11.37.31,22.54,1,4.84,2.42,10.87,4.12,17.26C801.63,297.08,799.8,298.27,798.9,298.68Z"/><path class="cls-135" d="M818.17,257.79c-4.42-.89-12.37,8.61-11.49,12.15s2.43,4.2,5.08,4,10-7.07,10-10.39S820.71,258.29,818.17,257.79Z"/><path class="cls-134" d="M990.13,378.53a2,2,0,0,1-1.61.77l-.26-.06-.27,0c-.41,0-10.17,1.11-16.77,6.32s-11.27,8.73-15.33,11.54c-2,1.4-4.91,3-8,4.75-3.23,1.81-6.57,3.69-8.94,5.36l-.35.25c-4.09,2.88-6,4.19-12.56,3.28a25.46,25.46,0,0,0-9.87.94,14.73,14.73,0,0,1-4.09.18,37.9,37.9,0,0,1-11.74-3.17c.62,0,1.27,0,1.94,0,2,0,3.62.08,4.87.18,3.55.31,7.32.81,7.32.81a2.18,2.18,0,0,0-.38-1.9c-.83-1.12-2.92-2.4-11.81-2.4a29.53,29.53,0,0,1-11.69-2.1c1.4-.48,2.71-1,4-1.55a57.38,57.38,0,0,1,7.87-2.7c5.77-1.44,9.86-2.28,9.86-2.28-.54-.71-2.91-2.87-10.66-.93a58.51,58.51,0,0,0-8.32,2.84,41,41,0,0,1-9.6,2.93c-5.83.93-9.67,1.43-10.93,1.59a34.85,34.85,0,0,1-4.87-2.59c-.45-.49-1.6-3-2.85-7l3-2.5c2.47-2.06,4.6-3.84,6-5.12.92-.85,1.74-1.7,2.5-2.53l.61.64a14.68,14.68,0,0,1,5.3-2.67,15,15,0,0,0-1.14,4.4,57.73,57.73,0,0,0,4.82-4.08,35.77,35.77,0,0,0,4.62-6.94,10.9,10.9,0,0,1,5.39,1.68,3.34,3.34,0,0,0-.46-2.95c-1-1.4-2.93-2.08-5.91-2.08-1.13,0-2.44.09-3.84.18-6.13.38-14.54.92-22.46-4.07l-.16-.08s-3.54-1.79-3.54-5a10.56,10.56,0,0,1,.56-4.13l.21-.33c1-1.64,3.65-5.45,6.44-7q.75-.31,1.53-.57a2.41,2.41,0,0,1,.37-.07v-.05a14.74,14.74,0,0,1,2-.46c.87,0,1.78,0,2.71-.08l1.43,1.93c5-3.7,14.85.32,15,.36l1-2.34c4.29-1.83,12.09-2.9,15.07-3.17l.73-.07.45-.6A54.13,54.13,0,0,1,927,329.72c-.52.06-12.69,1.67-21.91,13.66-1.36.15-4.4.52-7.67,1.17l0-.06A19.8,19.8,0,0,1,885.29,343v.07l-.18-.1c-.85,1.53-5.73,2.85-8.77,3.25-.62.09-1.27.16-1.92.22a17.28,17.28,0,0,0-3.68.12c-4.82-.11-9.73-1.47-12.44-5.77a6.4,6.4,0,0,1-.54-6.69,8.36,8.36,0,0,1,7-4.25,24.66,24.66,0,0,0,2.56-.28,12.54,12.54,0,0,0-2.67,1.42s3.89.19,5.86,1.29c.87.49,1.33,2.32,1.34,3.18-.12,2.42-.79,3.36-1.07,3.54-1.78.53-5.14,1.18-6.69.66,0,0,1,3.12,7.66,2.51.72-.07,3.16-1.25,3.41-6.6v-.08c0-2.29-.93-6.25-4.41-6.51h-.27c3.51-.78,6.65-1.78,6.86-1.85a16.5,16.5,0,0,1,3.94-.69c1.83-.19,4.59-.47,9.28-1.24,6.52-1.06,13.5-4.49,18.18-7a14.29,14.29,0,0,1,5.54-1.71c5.58,0,20,.41,33.52,5.77,10.27,4.07,13.73,5.33,18.29,4.57l7.45-2,.12,0a4.8,4.8,0,0,1,3.38.72c2.92,1.62,8.46,7.15,12.68,26.08C994.14,371.58,991.48,377.09,990.13,378.53Z"/><path class="cls-136" d="M945,324.52c-7.07-3.09-28.72-8.62-36.24-4-10.42,6.45-16.79,7.08-25.62,7.7s-8,2-16.8,3.8-4.87,4.86-4.87,4.86,7.08,7.07,24.31-1.77c7.07,2.21,10.61,1.77,19.89,0S929.55,325,929.55,325C945.46,328.5,945,324.52,945,324.52Z"/><path class="cls-137" d="M817.07,278.34c-2.42,1.78-14.37,8-12.38-9.95l-.16.27c-1.11,3.5-1.67,7.11-1.07,9.22,1.33,4.64,3.39,7.72,6,8.9,1.84.84,4.05.71,6.58-.39,1.08-1.1,6.27-6.47,8.2-11.18,2.67-6.47,4-10.78,4-12.79,0-2.62-1.64-15.05-3-18.43a48.64,48.64,0,0,0-5.53-8.65c1.27,3.21,5.79,7.2,6.24,21.78C826.15,265.08,822.15,274.58,817.07,278.34Z"/><path class="cls-137" d="M972.53,373.91c-8.62,6-19.56,20.55-45.08,27.18-8.44,2.19-8.62-6.63-5.31-7.95s47.07-23.21,45.41-25.86c-1-1.64-4.3-.33-13.59,3.65s-38.11,14.91-41.1,13.92c-1.13-.38-4.31,1.66-7-2.32-1.55-2.32.64-6.28,3-8.29s10.38-5.51,21.22-9.94c12.21-5,28.53-7.88,28.17-9.28-1.14-4.57-38.12,6.63-41.43,6.3s.66,2.65-3.32,3.31-34.47,1.66-42.42-1.33c-5.4-2-8.2-5.27-8.41-8.18a26.23,26.23,0,0,0-2,2.94l-.21.33a10.56,10.56,0,0,0-.56,4.13c0,3.19,3.51,5,3.54,5l.16.08c7.92,5,16.33,4.45,22.46,4.07,1.4-.09,2.71-.18,3.84-.18,3,0,4.92.68,5.91,2.08a3.34,3.34,0,0,1,.46,2.95,10.9,10.9,0,0,0-5.39-1.68,35.77,35.77,0,0,1-4.62,6.94,57.73,57.73,0,0,1-4.82,4.08,15,15,0,0,1,1.14-4.4,14.68,14.68,0,0,0-5.3,2.67l-.61-.64c-.76.83-1.58,1.68-2.5,2.53-1.37,1.28-3.5,3.06-6,5.12l-3,2.5c1.25,4.06,2.4,6.55,2.85,7a34.85,34.85,0,0,0,4.87,2.59c1.26-.16,5.1-.66,10.93-1.59a41,41,0,0,0,9.6-2.93,58.51,58.51,0,0,1,8.32-2.84c7.75-1.94,10.12.22,10.66.93,0,0-4.09.84-9.86,2.28a57.38,57.38,0,0,0-7.87,2.7c-1.34.54-2.65,1.07-4,1.55a29.53,29.53,0,0,0,11.69,2.1c8.89,0,11,1.28,11.81,2.4a2.18,2.18,0,0,1,.38,1.9s-3.77-.5-7.32-.81c-1.25-.1-2.84-.18-4.87-.18-.67,0-1.32,0-1.94,0a37.9,37.9,0,0,0,11.74,3.17,14.73,14.73,0,0,0,4.09-.18,25.46,25.46,0,0,1,9.87-.94c6.6.91,8.47-.4,12.56-3.28l.35-.25c2.37-1.67,5.71-3.55,8.94-5.36,3.06-1.73,5.94-3.35,8-4.75,4.06-2.81,8.65-6.27,15.33-11.54s16.36-6.28,16.77-6.32l.27,0,.26.06a2,2,0,0,0,1.61-.77c.89-.94,2.33-3.64,2-11C985.12,368.28,977.75,370.3,972.53,373.91Z"/><path d="M992.92,350.89c-3.43-15.4-8.25-24.91-14.31-28.26a7.79,7.79,0,0,0-6-1l-7.17,1.95c-3.46.56-6.26-.35-16.44-4.39-14-5.57-29-6.05-34.77-6a17.19,17.19,0,0,0-7.06,2.09c-2.58,1.37-10.43,5.53-17.16,6.63-4.6.75-7.3,1-9.09,1.22a19.39,19.39,0,0,0-4.64.83c-.07,0-7.28,2.33-11.73,2.57a12,12,0,0,0-8.76,4.53c-.63-2.46-4.08-4.36-10.74-5.91a137.1,137.1,0,0,0-23.26-2.82c-2.83-12.59-6.21-28.18-7-32.05a16,16,0,0,0,2.92-1l.25-.12.21-.2c.27-.26,6.74-6.6,9.16-12.48,3-7.17,4.27-11.51,4.27-14.06s-1.63-15.66-3.27-19.69-11.19-18.18-23.43-26.56c-.39-.28-9.48-6.92-15.52-9.78a19.55,19.55,0,0,0-11.81-1.9l-.8.09c-3,.25-6.21,1.23-7.68,4a54,54,0,0,1-11.79,1.82c-6.88.18-8.46,1.19-11.57,4.3-2.45,2.45-3.17,6.07-3.38,7.78-2.55,1.5-10.29,6.54-11.49,13-.82,4.4-.18,6.78.38,7.91-.5,2.57-1.64,7.95-2.57,9.92-.13.26-.23.52-.33.77a4.29,4.29,0,0,1-.28.62c-3.52,4.34-2,10.09-1.35,12.54.08.29.14.52.17.68,3,15.69,10.58,23.54,16.36,27.35a27.54,27.54,0,0,0,12,4.58,30.27,30.27,0,0,0,6.93.95,10.74,10.74,0,0,0,3.91-.61,37.74,37.74,0,0,0,4.36-2.15,3.52,3.52,0,0,1,.61-.28,24.1,24.1,0,0,0,2.72.16,20.71,20.71,0,0,0,11.63-3.46,17.76,17.76,0,0,0,2.54,4.92,10.25,10.25,0,0,0,7.55,3.44,12.24,12.24,0,0,0,4.79-1A11.71,11.71,0,0,0,803,299.9c2.06,7.55,4.35,15.37,6.4,22.19a181.76,181.76,0,0,0-31.73,2.62c-12.92,2.48-14.4,5.53-14.39,7.61a3.62,3.62,0,0,0,.1.84l-.09,0,10.84,88.75c.3,7.71,29.56,8.1,35.44,8.1s35.15-.39,35.45-8.1l1.11-9.1c1.77-4.31,9.58-11.28,16.26-16.91,1,3,2.34,6.46,3.61,7.39a40.37,40.37,0,0,0,6,3.16l.41.18.45,0s4.26-.52,11.5-1.67c.59-.09,1.15-.2,1.7-.31a21.45,21.45,0,0,0,6.69,3l-.11.13c6.37,5.39,14.72,7,19.14,7.48a15.56,15.56,0,0,0,1.69.08,16.57,16.57,0,0,0,3.59-.35,22,22,0,0,1,8.57-.87c7.91,1.09,10.55-.77,14.93-3.85l.34-.25c2.24-1.57,5.51-3.41,8.66-5.19s6.09-3.42,8.24-4.91c4.12-2.85,8.75-6.34,15.49-11.66,5.37-4.24,13.54-5.43,14.87-5.6a5.23,5.23,0,0,0,4.25-1.62C996.32,377.05,996.5,366.93,992.92,350.89ZM869,373.65a27.65,27.65,0,0,1-5.23,4.59,19.67,19.67,0,0,1,2-5.79A31.31,31.31,0,0,0,869,373.65Zm-9,6.66.15,0a52.83,52.83,0,0,1-6.32,2.93,28,28,0,0,0-4.29,1.83l2.36-19.39h0a46.13,46.13,0,0,1,4.9-6.67,19.83,19.83,0,0,0-.27,3.47c0,5,4.57,7.53,5.32,7.91.3.19.6.35.9.52C861.24,373.57,860.41,377.67,860,380.31Zm-7.24-21.61,1.57-12.8a10.06,10.06,0,0,1,2-2.1,15.11,15.11,0,0,0,7.6,5.08A37.66,37.66,0,0,0,852.77,358.7Zm-39.31-23.48-3.84,0c-19.62.09-32.48-1.55-35.63-3,3.14-1.45,16-3.23,35.6-3.34h1.94C812.24,331.3,812.9,333.41,813.46,335.22Zm3.45-.08c-2.68-8.54-7.72-25-11.62-39.55,0,0,0,0,0-.08h0c-1.07-4-2.06-7.91-2.88-11.44a17.21,17.21,0,0,0,1.68,2.54c3.87,16,10.52,37.75,13.88,48.5Zm-12.83-82.32a1.06,1.06,0,0,1,.41.36c-2.8,1.46-5.08,4.54-3.67,16.36-.27,1-.49,2.06-.65,3.07C798,256.83,802.52,253.5,804.08,252.82Zm-1.68,12c-.32-7.43,1.5-9.1,3-9.86a16.28,16.28,0,0,1,.66,1.91c.07.25.23,1,.38,1.63a8,8,0,0,0-2.22,2.46A31.24,31.24,0,0,0,802.4,264.79ZM820,335c-3.11-9.92-9.31-30.13-13.28-46a8.79,8.79,0,0,0,1.3.73,9.38,9.38,0,0,0,3.38.83c.89,4.13,7,32.51,9.88,44.37Zm4.65-.23c-.38-1.56-.83-3.47-1.32-5.6,12.86.54,19.72,1.82,21.86,2.73C842.93,333,835.73,334.17,824.66,334.81Zm-59.87-37.74c-2,.81-6.54.12-8.9-.51l-.32-.05a20.37,20.37,0,0,1-5.16-1.31,46.4,46.4,0,0,1,3.06-4,8.72,8.72,0,0,0,5,2.17,33,33,0,0,0,7.36,3.27Zm-4.88-6.7-.35-.23-.42,0a5.64,5.64,0,0,1-3.49-1.38,115.29,115.29,0,0,1,8.76-8.45,9.35,9.35,0,0,0,2.36,2,33.78,33.78,0,0,0,14.8,10.47C771.34,297.73,760,290.45,759.91,290.37Zm39,8.31c-4.25,1.8-7,.14-8.57-1.58a16.64,16.64,0,0,1-1.84-3.76,12.23,12.23,0,0,0,2.75,2.5s-.7-5.24-.29-6.75a3.35,3.35,0,0,1,1.46-2,2.47,2.47,0,0,1,2.28.09,9,9,0,0,1,4.65,5.89s1.47-3.31-.42-5.89a8.59,8.59,0,0,0-2.91-3,5.16,5.16,0,0,0-4.66-.22l-.07,0a6.36,6.36,0,0,0-3.11,4,9,9,0,0,0-.06,4.35c-.24-.62-.47-1.24-.67-1.78a36.19,36.19,0,0,0-1.87-4.49c-1-1.75-2.16-5.93-3.08-9.29l-.07-.25c-1-3.62-6.09-21.16-6.3-21.91l-.1-.32-.21-.26a13.05,13.05,0,0,1-2.61-6.81l0-.2c-.68-4.07-1.09-7.71-1.33-10.9-.79-10.5-1.3-16.51-1.3-16.51s-2.33,3.19-2.32,9.39a115.6,115.6,0,0,0,1.66,18.47A16.4,16.4,0,0,0,773,255.9c.71,2.42,5.29,18.21,6.2,21.54l.07.26c1,3.72,2.17,7.95,3.41,10.08a18,18,0,0,1,.95,2.18,30.61,30.61,0,0,1-14.45-10l-.32-.45-.52-.18a5,5,0,0,1-1.43-1.24c4.74-4,8.45-6.63,8.53-6.69s-6.44,1-10.55,4.29l-.83-1.08c-4.84-6.41-8.7-17.16-11.14-25.29-1.86-6.19-2.9-10.87-2.93-11a44.24,44.24,0,0,0,1.81,18.37c2.44,7,5.69,14.69,9.61,19.89l.93,1.2a109.21,109.21,0,0,0-8.53,8c-8.1-6.7-14.17-27-14.23-27.23,0,0-1.33,7.14,1.52,13.6,2.59,5.84,6.11,12.27,10.24,15.87,0,.11.08.23.13.34a53.5,53.5,0,0,0-4.15,5.42c-6.2-3.29-14.15-10.57-17.26-26.57-.05-.21-.12-.52-.22-.9-.57-2.13-1.74-6.57.72-9.61a5.43,5.43,0,0,0,.78-1.48c.08-.18.15-.38.25-.58,1.37-2.92,2.79-10.49,2.94-11.34l-.37-1.4c-.16-.29-.87-1.87-.12-5.89,1.11-6,10.49-11.06,10.58-11.11l.8-.44.08-1s.21-4.22,2.5-6.51c2.43-2.44,3.17-3.17,9.31-3.33a57.17,57.17,0,0,0,13-2.05s1.29-.38,1.62-1c1.08-2.13,3.73-2.63,5-2.73l.93-.11a16.29,16.29,0,0,1,10,1.61c5.76,2.72,14.89,9.39,15,9.48,11.55,7.91,20.73,21.35,22.28,25.12,1.38,3.38,3,15.81,3,18.43,0,2-1.35,6.32-4,12.79-1.93,4.71-7.12,10.08-8.2,11.18-2.53,1.1-4.74,1.23-6.58.39-2.57-1.18-4.63-4.26-6-8.9-1-3.43,1.13-10.91,3.66-15.3,2-3.5,7.46-6.62,7.46-6.62a14.76,14.76,0,0,0-1.62.12,27.74,27.74,0,0,1,2.28-6.5,8.22,8.22,0,0,0-3,1.95c-1.36-2.2-.69-8-.69-8s-1.31,3.27-1.93,4.52c-.48,1-.78,3.64-1,6.06-.64-1.71-1.63-3.49-3.05-4.25a3.3,3.3,0,0,0-2.89-.11,8.27,8.27,0,0,0-1.49.84c0-.32.06-.64.09-1,.16-1.39.25-2.67.3-3.87a7,7,0,0,0,3.29-2.66c1.26-1.8,1.84-4.21,2.16-7.18.51-4.86-4.05-8.69-4.05-8.69,1.84,9.48,0,13.19-1.39,14.61-.43-9.27-4.06-11.34-4.56-11.58a6,6,0,0,0-4,0s7.74,1.55,4.93,19a52.7,52.7,0,0,0-.47,6.13,2.64,2.64,0,0,1-.1.61c-1.51,4.37-1.87,11.37.31,22.54,1,4.84,2.42,10.87,4.12,17.26C801.63,297.08,799.8,298.27,798.9,298.68Zm-20.11,29.2a180,180,0,0,1,30.79-2.47h.86c.09.3.18.61.28.91h-1.15a235.93,235.93,0,0,0-26.63,1.46c-11.2,1.4-12.13,3.08-12.12,4.54s1,3.14,12.17,4.42a230.61,230.61,0,0,0,25,1.18h1.7a240.74,240.74,0,0,0,26.63-1.46c11.2-1.4,12.13-3.08,12.12-4.55,0-1.84-2.3-2.93-8.15-3.87a154.19,154.19,0,0,0-17.51-1.5c-.06-.28-.13-.55-.19-.83,22.25,1.16,29.83,4.94,30.05,6.22,0,0-.87,2.32-12.17,4.43a181,181,0,0,1-30.79,2.47,178.69,178.69,0,0,1-30.8-2.21c-11.32-2-12.2-4.3-12.21-4.31S767.49,330,778.79,327.88Zm63,93.89c-.73,1.68-11.12,4.94-32.14,4.94s-31.4-3.26-32.13-4.94v-.06l-10.37-85a41.76,41.76,0,0,0,10.67,3.06,179.25,179.25,0,0,0,30.83,2.35h1a183.27,183.27,0,0,0,31.86-2.62,42.58,42.58,0,0,0,10.65-3.15l-10.41,85.23ZM847,405.86l1.93-15.8c.7-1.5,2.51-2.15,6.22-3.75,2-.88,4.56-2,7.6-3.6a30.17,30.17,0,0,0,9.79-8.19,40.17,40.17,0,0,0,6.09.64,36,36,0,0,1-6.74,8.41c-1.32,1.22-3.42,3-5.85,5C858.41,395,851.25,400.84,847,405.86Zm38.45-28.47v-.09c-.09,0-.74.13-1.69.37a17.65,17.65,0,0,0,.81-2.62l1.68-.1.75,0C886.53,375.73,886,376.6,885.46,377.39Zm104.67,1.14a2,2,0,0,1-1.61.77l-.26-.06-.27,0c-.41,0-10.17,1.11-16.77,6.32s-11.27,8.73-15.33,11.54c-2,1.4-4.91,3-8,4.75-3.23,1.81-6.57,3.69-8.94,5.36l-.35.25c-4.09,2.88-6,4.19-12.56,3.28a25.46,25.46,0,0,0-9.87.94,14.73,14.73,0,0,1-4.09.18,37.9,37.9,0,0,1-11.74-3.17c.62,0,1.27,0,1.94,0,2,0,3.62.08,4.87.18,3.55.31,7.32.81,7.32.81a2.18,2.18,0,0,0-.38-1.9c-.83-1.12-2.92-2.4-11.81-2.4a29.53,29.53,0,0,1-11.69-2.1c1.4-.48,2.71-1,4-1.55a57.38,57.38,0,0,1,7.87-2.7c5.77-1.44,9.86-2.28,9.86-2.28-.54-.71-2.91-2.87-10.66-.93a58.51,58.51,0,0,0-8.32,2.84,41,41,0,0,1-9.6,2.93c-5.83.93-9.67,1.43-10.93,1.59a34.85,34.85,0,0,1-4.87-2.59c-.45-.49-1.6-3-2.85-7l3-2.5c2.47-2.06,4.6-3.84,6-5.12.92-.85,1.74-1.7,2.5-2.53l.61.64a14.68,14.68,0,0,1,5.3-2.67,15,15,0,0,0-1.14,4.4,57.73,57.73,0,0,0,4.82-4.08,35.77,35.77,0,0,0,4.62-6.94,10.9,10.9,0,0,1,5.39,1.68,3.34,3.34,0,0,0-.46-2.95c-1-1.4-2.93-2.08-5.91-2.08-1.13,0-2.44.09-3.84.18-6.13.38-14.54.92-22.46-4.07l-.16-.08s-3.54-1.79-3.54-5a10.56,10.56,0,0,1,.56-4.13l.21-.33c1-1.64,3.65-5.45,6.44-7q.75-.31,1.53-.57a2.41,2.41,0,0,1,.37-.07v-.05a14.74,14.74,0,0,1,2-.46c.87,0,1.78,0,2.71-.08l1.43,1.93c5-3.7,14.85.32,15,.36l1-2.34c4.29-1.83,12.09-2.9,15.07-3.17l.73-.07.45-.6A54.13,54.13,0,0,1,927,329.72c-.52.06-12.69,1.67-21.91,13.66-1.36.15-4.4.52-7.67,1.17l0-.06A19.8,19.8,0,0,1,885.29,343v.07l-.18-.1c-.85,1.53-5.73,2.85-8.77,3.25-.62.09-1.27.16-1.92.22a17.28,17.28,0,0,0-3.68.12c-4.82-.11-9.73-1.47-12.44-5.77a6.4,6.4,0,0,1-.54-6.69,8.36,8.36,0,0,1,7-4.25,24.66,24.66,0,0,0,2.56-.28,12.54,12.54,0,0,0-2.67,1.42s3.89.19,5.86,1.29c.87.49,1.33,2.32,1.34,3.18-.12,2.42-.79,3.36-1.07,3.54-1.78.53-5.14,1.18-6.69.66,0,0,1,3.12,7.66,2.51.72-.07,3.16-1.25,3.41-6.6v-.08c0-2.29-.93-6.25-4.41-6.51h-.27c3.51-.78,6.65-1.78,6.86-1.85a16.5,16.5,0,0,1,3.94-.69c1.83-.19,4.59-.47,9.28-1.24,6.52-1.06,13.5-4.49,18.18-7a14.29,14.29,0,0,1,5.54-1.71c5.58,0,20,.41,33.52,5.77,10.27,4.07,13.73,5.33,18.29,4.57l7.45-2,.12,0a4.8,4.8,0,0,1,3.38.72c2.92,1.62,8.46,7.15,12.68,26.08C994.14,371.58,991.48,377.09,990.13,378.53Zm-104.3-31.82a22.61,22.61,0,0,0,2.45.72l-.44.26.17.26c-.93-.25-2-.5-3.15-.69C885.2,347.09,885.52,346.9,885.83,346.71Z"/><path d="M932.06,322.77c-4-.61-10.18,4.37-10.18,4.37.54-.17,6.54-1.58,9.68-1.1a17.38,17.38,0,0,1,9.16,4.32A10.9,10.9,0,0,0,932.06,322.77Z"/><path d="M883.15,328.24a22.21,22.21,0,0,1,2.26,8.28s3.53-1,2.75-3.79a28.51,28.51,0,0,0-1-3.52C886.57,327.49,883.15,328.24,883.15,328.24Z"/><path d="M916.3,361.27a10.48,10.48,0,0,1-3.41,2.66c-.79.27-8.1,1.83-8.1,1.83a13.31,13.31,0,0,0,6.78,1.61,7.85,7.85,0,0,0,2.37-.29C916.29,366.3,916.3,361.27,916.3,361.27Z"/><path d="M921.59,384.73a7.35,7.35,0,0,1-2.34,2.36c-.86.46-7.54,3.94-7.54,3.94l1.32,0c2.29,0,6.15-.15,7.8-1.05C923,388.82,921.59,384.73,921.59,384.73Z"/><path d="M924.49,404.63c-.57.05-6.19,1.71-6.19,1.71a24.37,24.37,0,0,0,6.22,1.6,2.23,2.23,0,0,0,.37,0c1.51-.19,2.72-4.79,2.72-4.79A5.52,5.52,0,0,1,924.49,404.63Z"/><path d="M804.65,272.75s-1.64,1.9.61,2.41c5.18,2.67,8.15,9.06,8.19,9.16s.29,2.62,2.39.72a8.48,8.48,0,0,0,3.7-7.22,9.71,9.71,0,0,0-4.15-8.33,6.39,6.39,0,0,0-3.58-1.13C807.7,268.36,804.77,272.57,804.65,272.75Zm11.58,5a6.1,6.1,0,0,1-.85,3.13,29.89,29.89,0,0,0-2.64-3.74,21.68,21.68,0,0,0-4.18-3.87,5.27,5.27,0,0,1,3.25-1.61,3.05,3.05,0,0,1,1.74.57A6.53,6.53,0,0,1,816.23,277.77Z"/><path d="M820.06,261.15a32.82,32.82,0,0,0,3.59,4.61c.21.4,2.09,2.79,2.09,2.79s1.54-2.43.71-4.58l-.1-.18-.14-.15a30.42,30.42,0,0,1-3.31-4.19c-1.78-3-4.15-2.69-4.42-2.65l-2.69,1.25A7.91,7.91,0,0,1,820.06,261.15Z"/><path d="M787.6,274.27a5.38,5.38,0,0,0-2.42,2.94l-.66,2.61,1.69-1.05c1-.66,4.28-3.26,8-2.93A6,6,0,0,0,787.6,274.27Z"/><path class="cls-137" d="M869,373.65a27.65,27.65,0,0,1-5.23,4.59,19.67,19.67,0,0,1,2-5.79A31.31,31.31,0,0,0,869,373.65Z"/><path class="cls-137" d="M764.79,297.07c-2,.81-6.54.12-8.9-.51l-.32-.05a20.37,20.37,0,0,1-5.16-1.31,46.4,46.4,0,0,1,3.06-4,8.72,8.72,0,0,0,5,2.17,33,33,0,0,0,7.36,3.27Z"/><path class="cls-137" d="M759.91,290.37l-.35-.23-.42,0a5.64,5.64,0,0,1-3.49-1.38,115.29,115.29,0,0,1,8.76-8.45,9.35,9.35,0,0,0,2.36,2,33.78,33.78,0,0,0,14.8,10.47C771.34,297.73,760,290.45,759.91,290.37Z"/><path class="cls-138" d="M885.46,377.39v-.09c-.09,0-.74.13-1.69.37a17.65,17.65,0,0,0,.81-2.62l1.68-.1.75,0C886.53,375.73,886,376.6,885.46,377.39Z"/><path class="cls-139" d="M852.77,358.7l1.57-12.8a10.06,10.06,0,0,1,2-2.1,15.11,15.11,0,0,0,7.6,5.08A37.66,37.66,0,0,0,852.77,358.7Z"/><path class="cls-140" d="M778.79,327.88a180,180,0,0,1,30.79-2.47h.86c.09.3.18.61.28.91h-1.15a235.93,235.93,0,0,0-26.63,1.46c-11.2,1.4-12.13,3.08-12.12,4.54s1,3.14,12.17,4.42a230.61,230.61,0,0,0,25,1.18h1.7a240.74,240.74,0,0,0,26.63-1.46c11.2-1.4,12.13-3.08,12.12-4.55,0-1.84-2.3-2.93-8.15-3.87a154.19,154.19,0,0,0-17.51-1.5c-.06-.28-.13-.55-.19-.83,22.25,1.16,29.83,4.94,30.05,6.22,0,0-.87,2.32-12.17,4.43a181,181,0,0,1-30.79,2.47,178.69,178.69,0,0,1-30.8-2.21c-11.32-2-12.2-4.3-12.21-4.31S767.49,330,778.79,327.88Z"/><path class="cls-128" d="M841.74,421.77c-.73,1.68-11.12,4.94-32.14,4.94s-31.4-3.26-32.13-4.94v-.06l-10.37-85a41.76,41.76,0,0,0,10.67,3.06,179.25,179.25,0,0,0,30.83,2.35h1a183.27,183.27,0,0,0,31.86-2.62,42.58,42.58,0,0,0,10.65-3.15l-10.41,85.23Z"/><path class="cls-141" d="M847,405.86l1.93-15.8c.7-1.5,2.51-2.15,6.22-3.75,2-.88,4.56-2,7.6-3.6a30.17,30.17,0,0,0,9.79-8.19,40.17,40.17,0,0,0,6.09.64,36,36,0,0,1-6.74,8.41c-1.32,1.22-3.42,3-5.85,5C858.41,395,851.25,400.84,847,405.86Z"/><path class="cls-142" d="M813.46,335.22l-3.84,0c-19.62.09-32.48-1.55-35.63-3,3.14-1.45,16-3.23,35.6-3.34h1.94C812.24,331.3,812.9,333.41,813.46,335.22Z"/><path class="cls-143" d="M824.66,334.81c-.38-1.56-.83-3.47-1.32-5.6,12.86.54,19.72,1.82,21.86,2.73C842.93,333,835.73,334.17,824.66,334.81Z"/><path class="cls-144" d="M816.91,335.14c-2.68-8.54-7.72-25-11.62-39.55,0,0,0,0,0-.08h0c-1.07-4-2.06-7.91-2.88-11.44a17.21,17.21,0,0,0,1.68,2.54c3.87,16,10.52,37.75,13.88,48.5Zm-12.83-82.32a1.06,1.06,0,0,1,.41.36c-2.8,1.46-5.08,4.54-3.67,16.36-.27,1-.49,2.06-.65,3.07C798,256.83,802.52,253.5,804.08,252.82Z"/><path class="cls-145" d="M802.4,264.79c-.32-7.43,1.5-9.1,3-9.86a16.28,16.28,0,0,1,.66,1.91c.07.25.23,1,.38,1.63a8,8,0,0,0-2.22,2.46A31.24,31.24,0,0,0,802.4,264.79ZM820,335c-3.11-9.92-9.31-30.13-13.28-46a8.79,8.79,0,0,0,1.3.73,9.38,9.38,0,0,0,3.38.83c.89,4.13,7,32.51,9.88,44.37Z"/><path class="cls-146" d="M846.9,338.29C843.76,379,831.82,418,809.74,418h-.22c-22,0-34-38.78-37.14-79.38a28.41,28.41,0,0,1-5.28-1.88l10.37,85v.06c.73,1.68,11.12,4.94,32.13,4.94s31.41-3.26,32.14-4.94v-.16l10.41-85.23A29.66,29.66,0,0,1,846.9,338.29Z"/><path class="cls-139" d="M869,382c-7.52,7.07-11.49,6.85-21.34,15.89l-.65,8c4.24-5,11.4-10.91,19-17.29,2.43-2,4.53-3.78,5.85-5a36,36,0,0,0,6.74-8.41,40.17,40.17,0,0,1-6.09-.64,28.65,28.65,0,0,1-5.44,5.39C868.78,379.1,871.86,379.28,869,382Z"/><path class="cls-137" d="M887.34,338.78s-25,10.9-29.58-4.66a6.4,6.4,0,0,0,.54,6.69c2.71,4.3,7.62,5.66,12.44,5.77a17.28,17.28,0,0,1,3.68-.12c.65-.06,1.3-.13,1.92-.22,3-.4,7.92-1.72,8.77-3.25l.18.1V343a19.8,19.8,0,0,0,12.08,1.47l0,.06c3.27-.65,6.31-1,7.67-1.17a37.66,37.66,0,0,1,8.28-7.93C905.24,338.78,899.6,340.76,887.34,338.78Z"/><path class="cls-137" d="M807,228.66c1.41,2.34,2.51,8.13,1.41,10.78-.63,1.52-1.58,1.94-2.4,1.54a9.33,9.33,0,0,1-1.1,2.16,7,7,0,0,1-3.29,2.66c0,1.2-.14,2.48-.3,3.87,0,.32-.05.64-.09,1a8.27,8.27,0,0,1,1.49-.84,3.3,3.3,0,0,1,2.89.11c1.42.76,2.41,2.54,3.05,4.25.19-2.42.49-5.1,1-6.06.62-1.25,1.92-4.48,1.93-4.52s-.67,5.76.69,8a8.66,8.66,0,0,1,2.45-1.73C816.86,242.67,808.85,231.13,807,228.66Z"/><path class="cls-137" d="M788.11,292.38c0-.14,0-.27-.06-.4l-.13-.1C788,292.05,788.05,292.21,788.11,292.38Z"/><path class="cls-137" d="M807,228.66a2.39,2.39,0,0,0-.36-.49Z"/><path class="cls-137" d="M779.44,278.23h0l-.15-.53-.07-.26c0-.1-.06-.22-.09-.34l0-.08c-.07-.24-.15-.51-.23-.82l0-.05c0-.15-.08-.3-.13-.47s0-.1,0-.16-.08-.28-.13-.43a1.33,1.33,0,0,0,0-.19l-.12-.41-.15-.53,0-.07c-.5-1.76-1.12-3.9-1.75-6.1-.1-.33-.19-.66-.29-1h0c-1.39-4.82-2.79-9.64-3.16-10.89a16.4,16.4,0,0,1-3.13-8.38,123.42,123.42,0,0,1-1.57-14.76,55.45,55.45,0,0,0,.57,20.61s3.54,17.23-2.21,17c-4.49-.17-8.31-7.24-10.25-10.72,2.12,5.55,4.7,11.06,7.65,15l.83,1.08a15.44,15.44,0,0,1,2.32-1.52,28.62,28.62,0,0,1,8-2.73h0l.14,0h.05l0,0,0,0-.09.06,0,0a.85.85,0,0,1-.14.1l-.08.07-.18.13-.09.07-.31.23-.17.12-.21.16-.22.16-.2.16-.26.19-.22.17-.29.22-.18.13-.64.5-.25.19-.36.28-.25.2-.39.31-.27.21-.4.32-.29.23c-.91.73-1.88,1.52-2.91,2.38a5,5,0,0,0,1.43,1.24l.52.18.32.45a30.61,30.61,0,0,0,14.45,10,18,18,0,0,0-.95-2.18C781.52,285.75,780.42,281.82,779.44,278.23Z"/><path class="cls-137" d="M758.33,271.79c.7,2.48,1,5-.27,6.11-2.37,2.19-7.32,2.41-12.21-3.45,2.25,4.51,5,8.87,8,11.36a109.21,109.21,0,0,1,8.53-8l-.93-1.2A42.25,42.25,0,0,1,758.33,271.79Z"/><path class="cls-137" d="M750.3,287.05a3.37,3.37,0,0,1-3.28,2.12c-2.27.13-6.55-2-9.83-4.37a29.59,29.59,0,0,0,10.15,9,53.5,53.5,0,0,1,4.15-5.42c0-.11-.09-.23-.13-.34C751,287.74,750.65,287.4,750.3,287.05Z"/><path class="cls-147" d="M769.44,276.06c-.79.63-1.63,1.32-2.51,2.05a5,5,0,0,0,1.43,1.24l.52.18.32.45a30.61,30.61,0,0,0,14.45,10,18,18,0,0,0-.95-2.18c-1.18-2-2.28-6-3.26-9.55L774,279.88Z"/><path class="cls-147" d="M764.08,274.63l.83,1.08a15.44,15.44,0,0,1,2.32-1.52l-7-5.92A43.93,43.93,0,0,0,764.08,274.63Z"/><path class="cls-147" d="M797.25,275.42c0-.25-.09-.52-.13-.77h0C797.16,274.9,797.2,275.17,797.25,275.42Z"/><path class="cls-147" d="M794.42,299.38a4.52,4.52,0,0,0,.53.06l-.47-.05Z"/><path class="cls-147" d="M789.81,296.16l-.16-.16c-.09-.17-.18-.36-.27-.55l.35.71v0Z"/><path class="cls-147" d="M797,288.85c-.12-.12-.25-.24-.37-.34h0C796.72,288.61,796.85,288.73,797,288.85Z"/><path class="cls-147" d="M801,292.26l-.06-.25a1.8,1.8,0,0,0,.05.19Z"/><path class="cls-147" d="M797.36,289.26h0l-.35-.37h0C797.13,289,797.24,289.13,797.36,289.26Z"/><path class="cls-147" d="M795,299.44a6.94,6.94,0,0,0,1.35-.05A6.92,6.92,0,0,1,795,299.44Z"/><path class="cls-147" d="M799.11,292.22c-.07-.21-.15-.41-.23-.6.07.15.12.31.18.47A.69.69,0,0,0,799.11,292.22Z"/><path class="cls-147" d="M796,284.23l.2.12h0Z"/><path class="cls-147" d="M797.78,289.76c-.11-.14-.23-.29-.35-.42l.3.36Z"/><polygon class="cls-147" points="797.73 285.62 797.73 285.62 797.73 285.62 797.73 285.62"/><polygon class="cls-147" points="798.37 286.39 798.38 286.4 798.38 286.4 798.37 286.39"/><path class="cls-147" d="M798.82,291.49c-.08-.18-.16-.35-.25-.52.07.13.13.27.2.41Z"/><path class="cls-147" d="M798.45,290.77l-.23-.4.23.39Z"/><path class="cls-147" d="M800.48,290.24c0-.1-.05-.19-.07-.29l.06.24Z"/><path class="cls-147" d="M798.07,249.31c.11-.7.2-1.36.28-2l0,.27C798.25,248.14,798.17,248.71,798.07,249.31Z"/><path class="cls-147" d="M798.37,247.14c.06-.49.11-1,.15-1.43,0,.06,0,.12,0,.19C798.47,246.3,798.42,246.72,798.37,247.14Z"/><path class="cls-147" d="M797.1,257.42l0-.13,0,.13Z"/><path class="cls-147" d="M798.53,245.53c0-.45.07-.88.1-1.3h0Q798.59,244.87,798.53,245.53Z"/><path class="cls-147" d="M796.82,258.64h0v0h0Z"/><path class="cls-147" d="M796.34,262.59h0v-.05h0Z"/><path class="cls-147" d="M798.86,283.52c0-.12-.05-.23-.07-.34v0Z"/><path class="cls-147" d="M796.82,272.56c0-.06,0-.11,0-.17s0,.11,0,.16Z"/><path class="cls-147" d="M799.48,286.17l-.06-.27.06.26Z"/><path class="cls-147" d="M798.19,299,798,299Z"/><path class="cls-147" d="M796.28,265.17v-.07h0Z"/><path class="cls-147" d="M796.28,264.25v-.17h0Z"/><path class="cls-147" d="M782.24,275.93l.07.22,0-.06Z"/><path class="cls-147" d="M790.68,297.46l-.35-.36Z"/><path class="cls-147" d="M789.35,295.37l-.24-.53Z"/><path class="cls-147" d="M790.16,296.88l-.06-.09Z"/><path class="cls-147" d="M788.76,294l-.27-.68Z"/><path class="cls-147" d="M789.05,294.71c-.07-.18-.15-.35-.22-.53C788.9,294.36,789,294.53,789.05,294.71Z"/><path class="cls-147" d="M794.69,287.19a9.27,9.27,0,0,1,1.91,1.31A9.27,9.27,0,0,0,794.69,287.19Z"/><path class="cls-147" d="M794.39,299.38a6.46,6.46,0,0,1-2.36-.87A6.39,6.39,0,0,0,794.39,299.38Z"/><path class="cls-147" d="M796.88,299.31l-.32.05Z"/><path class="cls-147" d="M797.51,299.16l-.29.07Z"/><path class="cls-147" d="M792,298.51a4.27,4.27,0,0,1-.44-.3C791.72,298.32,791.87,298.41,792,298.51Z"/><path class="cls-147" d="M791.5,298.16l-.34-.27Z"/><path class="cls-147" d="M791.06,297.81l-.29-.27Z"/><path class="cls-147" d="M790,296.59l-.07-.13Z"/><path class="cls-147" d="M797.84,289.83l.25.36Z"/><path class="cls-147" d="M774,250.84c0-.12-.09-.24-.12-.36Z"/><path class="cls-147" d="M782.11,275.45c0,.09,0,.18.07.25v0Z"/><path class="cls-147" d="M774.2,251.35c0-.11-.09-.22-.13-.32A3.05,3.05,0,0,1,774.2,251.35Z"/><path class="cls-147" d="M781.9,274.72h0c.05.16.09.32.13.46h0C782,275,782,274.87,781.9,274.72Z"/><polygon class="cls-147" points="781.71 274.04 781.71 274.04 781.71 274.04 781.71 274.04"/><path class="cls-147" d="M775.4,253.54l-.12-.19Z"/><path class="cls-147" d="M774.44,251.88c0-.1-.09-.19-.13-.29C774.35,251.69,774.4,251.78,774.44,251.88Z"/><path class="cls-147" d="M799.14,292.32a6.53,6.53,0,0,1,.2.76A6.53,6.53,0,0,0,799.14,292.32Z"/><path class="cls-147" d="M775,253l-.14-.24Z"/><path class="cls-147" d="M774.72,252.43l-.14-.26Z"/><path class="cls-137" d="M791.82,230.26l-.39-.32A.82.82,0,0,0,791.82,230.26Z"/><path class="cls-137" d="M791.82,230.26c6.24,5.21,3.35,21.92-.5,24.38a14.1,14.1,0,0,1-4.75,1.82c-8.4,1.77-12.78-6.23-12.73-6.09a.49.49,0,0,0,0,.11c0,.12.08.24.12.36a1.07,1.07,0,0,1,.07.19c0,.1.09.21.13.32l.11.24c0,.1.09.19.13.29l.14.29.14.26.18.32.14.24a3.75,3.75,0,0,0,.24.36l.12.19c.13.18.27.37.41.54l.21.26.1.32c.18.64,3.87,13.31,5.59,19.38h0c.07.23.13.46.19.67h0c.05.15.09.3.13.44h0c0,.1.06.19.08.28l.06.21v0l.06.23,0,.16,0,.06.11.42.07.25c.92,3.36,2,7.54,3.08,9.29a36.19,36.19,0,0,1,1.87,4.49c.2.54.43,1.16.67,1.78a9,9,0,0,1,.06-4.35,6.36,6.36,0,0,1,3.11-4l.07,0a5.16,5.16,0,0,1,4.66.22l.2.12h0a7.66,7.66,0,0,1,1.52,1.27h0c.22.25.44.51.64.77h0c.19.26.37.52.54.79,1.89,2.58.42,5.89.42,5.89a6.53,6.53,0,0,0-.2-.76l0-.1a.69.69,0,0,1-.05-.13c-.06-.16-.11-.32-.18-.47l-.06-.13-.05-.11c-.07-.14-.13-.28-.2-.41l-.12-.2h0l-.23-.39-.13-.18-.25-.36-.06-.07,0-.06-.3-.36-.07-.08h0c-.12-.13-.23-.25-.35-.36h0l0,0c-.12-.12-.25-.24-.37-.34h0a9.27,9.27,0,0,0-1.91-1.31,2.47,2.47,0,0,0-2.28-.09,3.35,3.35,0,0,0-1.46,2c-.41,1.51.29,6.75.29,6.75a12.23,12.23,0,0,1-2.75-2.5l.27.68c0,.06,0,.11.07.16s.15.35.22.53l.06.13.24.53,0,.08c.09.19.18.38.27.55l.16.16-.09,0v0l.17.3.07.13.13.2.06.09.17.22.35.36.09.08.29.27.1.08.34.27.08,0a4.27,4.27,0,0,0,.44.3h0a6.46,6.46,0,0,0,2.36.87h.09l.47.05h0a6.92,6.92,0,0,0,1.35-.05l.23,0,.32-.05.34-.08.29-.07L798,299l.24-.08.71-.27c.9-.41,2.73-1.6,3-2.83-.32-1.21-.63-2.41-.94-3.59v-.06a1.8,1.8,0,0,1-.05-.19l-.45-1.77v-.05l-.06-.24q-.49-1.93-.93-3.78h0l-.06-.26c-.2-.81-.38-1.61-.56-2.38l-.07-.31v0c-.37-1.61-.7-3.16-1-4.59-.21-1.1-.4-2.15-.56-3.17,0-.25-.09-.52-.13-.77h0c-.11-.72-.21-1.41-.3-2.09h0c0-.05,0-.11,0-.16a60.57,60.57,0,0,1-.52-7.22v-.07h0v-1h0c0-.51,0-1,.06-1.48h0v0h0a29.63,29.63,0,0,1,.48-3.91h0v0h0c.09-.41.18-.81.28-1.19h0l0-.13c.12-.43.24-.85.37-1.24a2.64,2.64,0,0,0,.1-.61,52.7,52.7,0,0,1,.47-6.13c.1-.6.18-1.17.25-1.73l0-.27c0-.06,0-.12,0-.17,0-.42.1-.84.13-1.24,0-.07,0-.13,0-.19a1.09,1.09,0,0,0,0-.18q.06-.66.09-1.29h0a26.43,26.43,0,0,0-.45-7c.05.53.08,1,.09,1.52l-.2-2c0,.16.07.3.11.46-1.15-5.21-3.95-6.54-4.79-6.83A4.1,4.1,0,0,1,791.82,230.26Z"/><path class="cls-137" d="M798.27,238.74c0-.49,0-1-.09-1.52h0c0-.16-.08-.3-.11-.46Z"/><path class="cls-134" d="M788.72,275.7c-3.3.43-5.4-3.76-6.53-7.06,0-1.55-.4-4.62.35-5.22,5.19-4.08,8.47-1.06,9.9,1.1C794,269.69,793.33,275.11,788.72,275.7Z"/><path class="cls-137" d="M799.5,222.59c-2-.82.29,4.32.66,5.64.87,3.1-.35,3.48-1.61,3.26,1.24,1.43,2.85,4.41,3.12,10.39,1.4-1.42,3.23-5.13,1.39-14.61h0C801.8,224.91,800.38,223,799.5,222.59Z"/><path class="cls-137" d="M811.88,276.2c.3.32.59.64.86,1a29.89,29.89,0,0,1,2.64,3.74,6.1,6.1,0,0,0,.85-3.13,7,7,0,0,0-1-3.68C814.67,275.29,813,276,811.88,276.2Z"/><path class="cls-148" d="M752.76,217.12c-4,2.47-6,8.4-4,13.71s7.63,23.75,12.27,23.09,4.86-29.5,3.2-33.48S757.07,214.47,752.76,217.12Z"/><path class="cls-149" d="M739,233c-3.15,2.25-3.65,5.74-2.08,10.58s4.94,23.57,8.58,23,2.79-28.75,1.49-32.38S742.41,230.55,739,233Z"/><path class="cls-150" d="M734.3,257.76c2.52.61,3.69,2.67,3.92,6.07s2.78,15.9.36,16.43-7.79-14.34-7.88-16.93S731.59,257.09,734.3,257.76Z"/><path class="cls-151" d="M778.29,209.78c-4.33,1.86-6.84,5.57-5.64,11.1s3.81,26.49,8.5,26.51,13.6-23,9.84-30.27C789,213.29,782.94,207.78,778.29,209.78Z"/><path class="cls-152" d="M937.94,352.37c-20.39,7.79-25.76,3.14-24.75-4,.89-6.19,8.84-13.26,18.12-16.8a18.75,18.75,0,0,1,14.59,3.54C950.59,338.88,953,346.62,937.94,352.37Z"/><path class="cls-153" d="M873.64,353.47c.91.91,2.31-.93,3.47-1.42a9.32,9.32,0,0,1,4.17-.56,12.32,12.32,0,0,1,4.33.82,10.08,10.08,0,0,1,1.84.81,12.37,12.37,0,0,0,1.6,1.2c4-2.37,8.37-4.38,13.16-3.5,3.7.67,9.44,4.63,6.48,9-1.62,2.39-5.05,3-7.7,3.3a84.11,84.11,0,0,1-12.09,0c-6.34-.23-14.29.49-19.81-3.27-1.42-1-3.37-2.82-2.56-4.75S870.54,350.38,873.64,353.47Z"/></g></g></svg>